<svg width="1024" height="1024" viewBox="0 0 1024 1024" fill="none" xmlns="http://www.w3.org/2000/svg">
<path d="M0 988.917C70.811 725.11 151.807 584.333 441.174 492.753C667.016 418.599 882.804 283.692 979.387 80.3477C991.928 54.1026 1002.35 26.9162 1014.43 0.878787C1015.24 -0.0624919 1015.98 -0.200915 1016.68 0.24204C1019.6 2.1246 1021.69 14.8872 1022.62 32.3701C1045.31 252.463 784.337 422.004 573.67 512.768C491.821 547.776 436.229 561.66 349.934 594.272C301.451 612.599 274.074 628.698 231.611 659.76C124.195 738.343 74.6525 867.285 17.7359 972.763C16.9999 974.134 17.206 973.815 16.735 974.66C16.4406 975.186 15.4103 976.736 15.0276 977.248C11.4805 981.747 8.08049 984.889 3.28224 988.211C3.10562 988.336 2.75237 988.599 2.59047 988.724C1.60432 989.402 1.17748 989.873 0.456275 989.596C0.279653 989.485 0.10303 989.319 0.0294371 989.125" fill="#FEFEFE"/>
<path d="M516.605 770.593C740.263 727.282 954.393 590.41 1016.46 384.252C1016.86 382.926 1018.88 382.979 1019.19 384.319C1067.12 580.966 746.244 836.598 516.433 774.143C514.473 773.607 514.602 770.982 516.59 770.593H516.605Z" fill="#FEFEFE"/>
<path d="M255.496 992.258C476.791 966.729 606.971 974.87 799.027 836.988C815.514 824.34 832.119 811.183 839.356 800.614C841.841 796.993 843.871 793.606 845.621 791.382C846.71 789.957 847.872 789.041 848.283 789.637C825.971 894.43 721.075 966.278 612.06 999.615C518.032 1027.85 401.796 1031.12 305.592 1011.74C289.825 1007.89 268.439 1000.04 255.099 993.61C254.835 993.436 254.408 993.13 254.496 992.825C254.57 992.636 254.496 992.607 255.114 992.36L255.511 992.244L255.496 992.258Z" fill="#FEFEFE"/>
</svg>
